<?xml version="1.0" encoding="UTF-8"?>
<svg width="200" height="200" viewBox="0 0 200 200" xmlns="http://www.w3.org/2000/svg">
  <!-- Fondo del avatar -->
  <circle cx="100" cy="100" r="100" fill="#3f51b5"/>
  
  <!-- Silueta del profesor -->
  <g transform="translate(40, 40)">
    <!-- Cabeza -->
    <circle cx="60" cy="45" r="32" fill="#ffffff"/>
    
    <!-- Gafas -->
    <path d="M30,45 C30,40 35,38 40,40 L50,42 C55,43 65,43 70,42 L80,40 C85,38 90,40 90,45" 
          stroke="#000000" stroke-width="3" fill="none"/>
    
    <!-- Corbata -->
    <path d="M60,77 L50,100 L60,120 L70,100 L60,77" fill="#ff5722" stroke="#000000" stroke-width="1"/>
    
    <!-- Camisa/cuerpo -->
    <path d="M28,77 C28,65 45,60 60,60 C75,60 92,65 92,77 L92,120 L28,120 Z" fill="#ffffff"/>
  </g>
</svg>
